<?xml version="1.0" encoding="UTF-8" standalone="no"?>
<!-- Created with Inkscape (http://www.inkscape.org/) -->

<svg
   xmlns:dc="http://purl.org/dc/elements/1.1/"
   xmlns:cc="http://creativecommons.org/ns#"
   xmlns:rdf="http://www.w3.org/1999/02/22-rdf-syntax-ns#"
   xmlns:svg="http://www.w3.org/2000/svg"
   xmlns="http://www.w3.org/2000/svg"
   xmlns:sodipodi="http://sodipodi.sourceforge.net/DTD/sodipodi-0.dtd"
   xmlns:inkscape="http://www.inkscape.org/namespaces/inkscape"
   width="180"
   height="180"
   viewBox="0 0 47.625001 47.625001"
   version="1.1"
   id="svg825"
   inkscape:version="0.92.3 (2405546, 2018-03-11)"
   sodipodi:docname="about.svg"
   inkscape:export-filename="C:\Projects\JeremyJeanson\MyBlog.net\Resources\About.png"
   inkscape:export-xdpi="96"
   inkscape:export-ydpi="96">
  <defs
     id="defs819" />
  <sodipodi:namedview
     id="base"
     pagecolor="#337ab7"
     bordercolor="#666666"
     borderopacity="1.0"
     inkscape:pageopacity="0"
     inkscape:pageshadow="2"
     inkscape:zoom="1.979899"
     inkscape:cx="137.63105"
     inkscape:cy="49.488947"
     inkscape:document-units="mm"
     inkscape:current-layer="layer1"
     showgrid="false"
     inkscape:pagecheckerboard="false"
     units="px"
     inkscape:window-width="1328"
     inkscape:window-height="795"
     inkscape:window-x="147"
     inkscape:window-y="111"
     inkscape:window-maximized="0" />
  <metadata
     id="metadata822">
    <rdf:RDF>
      <cc:Work
         rdf:about="">
        <dc:format>image/svg+xml</dc:format>
        <dc:type
           rdf:resource="http://purl.org/dc/dcmitype/StillImage" />
        <dc:title></dc:title>
      </cc:Work>
    </rdf:RDF>
  </metadata>
  <g
     inkscape:label="Calque 1"
     inkscape:groupmode="layer"
     id="layer1"
     transform="translate(0,-249.37498)">
    <path
       id="path827"
       d="m 18.568495,284.7953 h 1.380001 v -9.96762 h -1.380001 c -0.762175,0 -1.380002,-0.61782 -1.380002,-1.38 v -3.29621 c 0,-0.76216 0.617827,-1.38 1.380002,-1.38 h 7.728008 c 0.762174,0 1.380001,0.61784 1.380001,1.38 v 14.64383 h 1.380001 c 0.762175,0 1.380002,0.61782 1.380002,1.38 v 3.2962 c 0,0.76217 -0.617827,1.38 -1.380002,1.38 h -10.48801 c -0.762175,0 -1.380002,-0.61783 -1.380002,-1.38 v -3.2962 c 0,-0.76218 0.617827,-1.38 1.380002,-1.38 z m 5.244006,-29.27184 c -2.743789,0 -4.968006,2.22422 -4.968006,4.96801 0,2.74379 2.224217,4.968 4.968006,4.968 2.743787,0 4.968004,-2.22421 4.968004,-4.968 0,-2.74379 -2.224286,-4.96801 -4.968004,-4.96801 z"
       inkscape:connector-curvature="0"
       style="fill:#ffffff;stroke-width:0.06900007" />
  </g>
</svg>
