<?xml version="1.0" encoding="UTF-8" standalone="no"?>
<!-- Created with Inkscape (http://www.inkscape.org/) -->

<svg
   xmlns:dc="http://purl.org/dc/elements/1.1/"
   xmlns:cc="http://creativecommons.org/ns#"
   xmlns:rdf="http://www.w3.org/1999/02/22-rdf-syntax-ns#"
   xmlns:svg="http://www.w3.org/2000/svg"
   xmlns="http://www.w3.org/2000/svg"
   xmlns:sodipodi="http://sodipodi.sourceforge.net/DTD/sodipodi-0.dtd"
   xmlns:inkscape="http://www.inkscape.org/namespaces/inkscape"
   width="190mm"
   height="138.53333mm"
   viewBox="0 0 190 138.53333"
   version="1.1"
   id="svg8"
   inkscape:version="0.92.3 (2405546, 2018-03-11)"
   sodipodi:docname="Logo.svg"
   inkscape:export-filename="C:\Users\jerjea\Desktop\favicon.ico.png"
   inkscape:export-xdpi="2.3571429"
   inkscape:export-ydpi="2.3571429">
  <defs
     id="defs2" />
  <sodipodi:namedview
     id="base"
     pagecolor="#ffffff"
     bordercolor="#666666"
     borderopacity="1.0"
     inkscape:pageopacity="0.0"
     inkscape:pageshadow="2"
     inkscape:zoom="0.7"
     inkscape:cx="-93.240766"
     inkscape:cy="264.69268"
     inkscape:document-units="mm"
     inkscape:current-layer="layer1"
     showgrid="false"
     fit-margin-top="10"
     fit-margin-left="10"
     fit-margin-right="10"
     fit-margin-bottom="10"
     inkscape:window-width="1328"
     inkscape:window-height="795"
     inkscape:window-x="147"
     inkscape:window-y="111"
     inkscape:window-maximized="0"
     inkscape:pagecheckerboard="true" />
  <metadata
     id="metadata5">
    <rdf:RDF>
      <cc:Work
         rdf:about="">
        <dc:format>image/svg+xml</dc:format>
        <dc:type
           rdf:resource="http://purl.org/dc/dcmitype/StillImage" />
        <dc:title />
      </cc:Work>
    </rdf:RDF>
  </metadata>
  <g
     inkscape:label="Calque 1"
     inkscape:groupmode="layer"
     id="layer1"
     transform="translate(8.1101402,-79.162621)">
    <path
       id="path3724"
       d="m 28.98317,140.65052 c -1.08479,-2.83104 -1.69333,-5.92667 -1.69333,-9.15458 0,-14.02291 11.37708,-25.39999 25.4,-25.39999 5.21229,0 10.08062,1.5875 14.10229,4.28625 7.328951,-12.699999 21.00791,-21.219579 36.6977,-21.219579 23.38917,0 42.33334,18.944159 42.33334,42.333319 0,0.71437 -0.0265,1.42875 -0.0529,2.14312 14.81667,5.21229 25.45292,19.34104 25.45292,35.95688 0,21.03437 -17.06563,38.1 -38.1,38.1 H 35.75652 c -18.70604,0 -33.8666602,-15.16063 -33.8666602,-33.86667 0,-16.37771 11.6416602,-30.05667 27.0933302,-33.17875 z"
       inkscape:connector-curvature="0"
       style="fill:#337ab7;fill-opacity:1;stroke-width:0.26458332" />
    <path
       id="path4561"
       d="m 126.96185,154.62791 -2.54648,31.05133 c -0.65143,8.03426 -12.61398,6.92881 -11.96256,-0.96727 l 1.97402,-24.18174 -8.11322,0.45402 c 1.99376,4.08622 3.11895,8.66595 3.11895,13.52204 0,8.13296 -3.17817,15.53554 -8.35011,21.02331 l -7.757887,-7.7579 c 11.429567,-12.57451 2.58596,-33.00561 -14.607749,-33.00561 -5.112711,0 -9.771398,1.95428 -13.265413,5.13245 l -7.757898,-7.7579 c 4.342844,-4.08622 9.889839,-6.92881 16.068522,-7.93556 l 14.864378,-16.91735 -8.40933,-4.89557 -10.185946,9.08049 c -5.922059,5.29038 -13.93658,-3.65193 -7.99478,-8.96205 l 13.423338,-11.98229 c 1.934536,-1.73714 4.757388,-2.0135 7.00777,-0.71065 0,0 27.498085,15.96982 27.537575,16.0093 3.19791,1.99376 4.08622,7.10647 1.20415,10.38334 l -11.528277,13.12723 20.944347,-1.16467 c 3.65194,-0.21714 6.63271,2.84259 6.3366,6.45505 z M 114.15047,124.228 c 5.54699,0 10.04776,-4.50076 10.04776,-10.04776 0,-5.54699 -4.50077,-10.04776 -10.04776,-10.04776 -5.547,0 -10.04776,4.50077 -10.04776,10.04776 0,5.547 4.50076,10.04776 10.04776,10.04776 z m -35.413915,70.01848 c -15.9106,0 -25.149013,-17.88461 -16.325144,-30.81444 l -7.836859,-7.83686 c -4.105961,5.19167 -6.553746,11.76516 -6.553746,18.89137 0,25.80043 29.748477,39.75674 49.626857,24.18174 l -7.83685,-7.83686 c -3.158441,2.15168 -6.968298,3.41505 -11.074258,3.41505 z"
       inkscape:connector-curvature="0"
       style="fill:#ffffff;stroke-width:0.19740197" />
    <ellipse
       style="fill:#ffffff;fill-opacity:1;stroke-width:0.27600181"
       id="path4572"
       cx="78.57724"
       cy="173.78876"
       rx="31.116468"
       ry="31.976877" />
    <ellipse
       style="fill:#337ab7;fill-opacity:1;stroke-width:0.18128993"
       id="path4572-7"
       cx="78.57724"
       cy="173.78876"
       rx="20.438641"
       ry="21.003794" />
  </g>
</svg>
